<?xml version="1.0" encoding="utf-8"?>
<!-- Generator: Adobe Illustrator 25.0.1, SVG Export Plug-In . SVG Version: 6.00 Build 0)  -->
<svg version="1.1" id="Capa_1" xmlns="http://www.w3.org/2000/svg" xmlns:xlink="http://www.w3.org/1999/xlink" x="0px" y="0px"
	 viewBox="0 0 512 512" style="enable-background:new 0 0 512 512;" xml:space="preserve">
<style type="text/css">
	.st0{fill:#A8A8A8;}
	.st1{fill:#FF8500;}
</style>
<path class="st0" d="M352,96c-35.7,0-68.4,12.2-95,32H128C57.4,128,0,185.4,0,256s57.4,128,128,128h129c26.6,19.8,59.3,32,95,32
	c88.2,0,160-71.8,160-160S440.2,96,352,96z M32,256c0-52.9,43.1-96,96-96h96.8c-20.3,26.8-32.8,59.8-32.8,96s12.5,69.2,32.8,96H128
	C75.1,352,32,308.9,32,256z M352,384c-70.6,0-128-57.4-128-128s57.4-128,128-128s128,57.4,128,128S422.6,384,352,384L352,384z"/>
<path class="st1" d="M357.6,360.8c40,0.4,76.7-22.7,93.6-59.1c-10.6,4.6-22.1,6.9-33.7,6.7c-45.5,0-82.3-36.8-82.3-82.3
	c0.4-30.8,17.4-58.9,44.4-73.6c-7.3-1-14.6-1.4-22-1.3c-57.8,0-104.8,46.9-104.8,104.8C252.8,313.7,299.7,360.8,357.6,360.8z"/>
</svg>
