<?xml version="1.0" encoding="utf-8"?>
<!-- Generator: Adobe Illustrator 25.0.1, SVG Export Plug-In . SVG Version: 6.00 Build 0)  -->
<svg version="1.1" id="Capa_1" xmlns="http://www.w3.org/2000/svg" xmlns:xlink="http://www.w3.org/1999/xlink" x="0px" y="0px"
	 viewBox="0 0 512 512" style="enable-background:new 0 0 512 512;" xml:space="preserve">
<style type="text/css">
	.st0{fill:#CECECE;}
	.st1{fill:#FF8500;}
</style>
<g>
	<g>
		<path class="st0" d="M376.5,120.5h-241C60.8,120.5,0,181.3,0,256s60.8,135.5,135.5,135.5h241c74.7,0,135.5-60.8,135.5-135.5
			S451.2,120.5,376.5,120.5z M376.5,361.5C318.3,361.5,271,314.2,271,256s47.3-105.5,105.5-105.5S482,197.8,482,256
			S434.7,361.5,376.5,361.5z"/>
	</g>
</g>
<path class="st1" d="M381.3,345.8c34.3,0.4,65.7-19.4,80.2-50.6c-9.1,4-19,5.9-28.9,5.8c-39,0-70.5-31.5-70.5-70.5
	c0.4-26.4,14.9-50.5,38-63.1c-6.2-0.8-12.5-1.2-18.8-1.1c-49.5,0-89.8,40.2-89.8,89.8C291.5,305.5,331.6,345.8,381.3,345.8z"/>
</svg>
