<svg width="672" height="390" viewBox="0 0 672 390" fill="none" xmlns="http://www.w3.org/2000/svg">
<g clip-path="url(#clip0)">
<path d="M99.13 9.00001C99.1303 7.37271 98.6894 5.77579 97.8542 4.37919C97.0189 2.98258 95.8207 1.83855 94.3869 1.06885C92.9532 0.299154 91.3376 -0.0674157 89.712 0.00815565C88.0865 0.083727 86.5119 0.598611 85.1557 1.49801C83.7996 2.39742 82.7126 3.64768 82.0106 5.11575C81.3086 6.58383 81.0177 8.21477 81.169 9.83502C81.3202 11.4553 81.908 13.0042 82.8696 14.3169C83.8312 15.6297 85.1308 16.6572 86.63 17.29V64H93.63V17.29C95.2602 16.6019 96.6513 15.4485 97.6296 13.974C98.6078 12.4996 99.1297 10.7695 99.13 9.00001Z" fill="#CCCCCC"/>
<path d="M671.62 23H241.37V203.67H671.62V23Z" fill="#CBCBCB"/>
<path d="M250.37 194.67H662.62V32H250.37V194.67Z" fill="white"/>
<path d="M599.09 90.53V159.91C599.09 160.363 599.001 160.811 598.827 161.229C598.654 161.647 598.399 162.026 598.079 162.346C597.758 162.666 597.378 162.919 596.96 163.091C596.541 163.263 596.093 163.351 595.64 163.35H521C520.087 163.35 519.211 162.988 518.564 162.343C517.917 161.698 517.553 160.823 517.55 159.91V90.53C517.553 89.6158 517.917 88.7398 518.563 88.0934C519.21 87.447 520.086 87.0826 521 87.08H595.64C596.094 87.0787 596.543 87.167 596.962 87.3399C597.381 87.5128 597.762 87.7669 598.083 88.0875C598.403 88.4082 598.657 88.789 598.83 89.2082C599.003 89.6274 599.091 90.0766 599.09 90.53Z" fill="#6C63FF"/>
<path d="M563.6 163.69H553.05C552.147 163.701 551.277 163.353 550.63 162.723C549.984 162.093 549.613 161.233 549.6 160.33V88.38C549.613 87.4774 549.984 86.6167 550.63 85.9869C551.277 85.357 552.147 85.0093 553.05 85.02H563.6C564.046 85.0147 564.49 85.0975 564.904 85.2635C565.319 85.4295 565.696 85.6755 566.016 85.9875C566.335 86.2995 566.59 86.6714 566.766 87.0819C566.942 87.4924 567.035 87.9335 567.04 88.38V160.33C567.035 160.777 566.942 161.218 566.766 161.628C566.59 162.039 566.335 162.411 566.016 162.723C565.696 163.035 565.319 163.281 564.904 163.447C564.49 163.613 564.046 163.695 563.6 163.69Z" fill="#3F3D56"/>
<path d="M556.15 65.37C561.57 70.06 559.86 80.91 559.86 80.91C559.86 80.91 549.36 84.16 543.94 79.47C538.52 74.78 540.23 63.91 540.23 63.91C540.23 63.91 550.73 60.67 556.15 65.37Z" fill="#3F3D56"/>
<path d="M574.16 78.58C569.48 84.01 558.62 82.33 558.62 82.33C558.62 82.33 555.37 71.84 560.01 66.41C564.65 60.98 575.55 62.65 575.55 62.65C575.55 62.65 578.83 73.14 574.16 78.58Z" fill="#3F3D56"/>
<path opacity="0.2" d="M599.09 90.53V102.21L517.55 101.91V90.53C517.553 89.6158 517.917 88.7398 518.563 88.0934C519.21 87.447 520.086 87.0826 521 87.08H595.64C596.094 87.0787 596.543 87.167 596.962 87.3399C597.381 87.5128 597.762 87.7669 598.083 88.0875C598.403 88.4082 598.657 88.789 598.83 89.2082C599.003 89.6274 599.091 90.0766 599.09 90.53Z" fill="black"/>
<path d="M607.87 97.63C607.548 98.054 607.132 98.3976 606.655 98.6335C606.178 98.8695 605.652 98.9916 605.12 98.99L514.25 98.61C513.797 98.6074 513.349 98.5156 512.931 98.3398C512.514 98.164 512.135 97.9076 511.816 97.5854C511.498 97.2632 511.246 96.8814 511.075 96.4618C510.904 96.0422 510.817 95.5931 510.82 95.14V85C510.822 84.5401 510.917 84.0853 511.098 83.6624C511.278 83.2395 511.542 82.857 511.873 82.5375C512.203 82.2179 512.595 81.9677 513.024 81.8015C513.453 81.6354 513.91 81.5567 514.37 81.57L605.24 81.95C606.153 81.9553 607.027 82.3225 607.67 82.9711C608.313 83.6197 608.673 84.4967 608.67 85.41V95.55C608.643 96.3132 608.361 97.0454 607.87 97.63Z" fill="#6C63FF"/>
<path d="M549.831 80.906L549.758 99.1558L567.198 99.2258L567.271 80.976L549.831 80.906Z" fill="#3F3D56"/>
<path d="M405.73 86.07H304.86V94.12H405.73V86.07Z" fill="#E5E5E5"/>
<path d="M460.62 115.45H304.86V123.5H460.62V115.45Z" fill="#6C63FF"/>
<path d="M431.8 143.12H304.86V151.17H431.8V143.12Z" fill="#E5E5E5"/>
<path d="M464.98 335.44C468.904 336.819 473.118 337.164 477.214 336.442C481.311 335.721 485.153 333.957 488.37 331.32C496.56 324.45 499.13 313.13 501.22 302.64L507.4 271.64L494.46 280.55C485.15 286.96 475.64 293.55 469.2 302.85C462.76 312.15 459.95 324.8 465.12 334.85" fill="#E6E6E6"/>
<path d="M466.97 375.15C465.35 363.29 463.67 351.27 464.82 339.28C465.82 328.63 469.08 318.23 475.69 309.7C479.217 305.177 483.509 301.305 488.37 298.26C489.63 297.46 490.79 299.46 489.54 300.26C481.161 305.551 474.68 313.367 471.03 322.58C467.03 332.83 466.36 344 467.03 354.88C467.45 361.46 468.34 368 469.24 374.53C469.31 374.827 469.265 375.139 469.115 375.404C468.965 375.669 468.72 375.867 468.43 375.96C468.134 376.037 467.82 375.995 467.555 375.844C467.29 375.693 467.094 375.444 467.01 375.15H466.97Z" fill="#F2F2F2"/>
<path d="M478.7 356.11C480.381 358.667 482.694 360.747 485.415 362.149C488.135 363.55 491.172 364.226 494.23 364.11C502.09 363.74 508.64 358.25 514.54 353.04L532 337.63L520.45 337.08C512.14 336.68 503.62 336.31 495.71 338.87C487.8 341.43 480.5 347.6 479.05 355.79" fill="#E6E6E6"/>
<path d="M462.37 381.97C470.21 368.1 479.3 352.68 495.55 347.75C500.083 346.384 504.834 345.896 509.55 346.31C511.03 346.44 510.66 348.73 509.18 348.6C501.3 347.939 493.433 350.02 486.91 354.49C480.63 358.76 475.74 364.71 471.6 371.01C469.07 374.87 466.8 378.89 464.52 382.91C463.76 384.2 461.64 383.27 462.37 381.97Z" fill="#F2F2F2"/>
<path d="M547.82 384.55H411.82C411.555 384.55 411.3 384.445 411.113 384.257C410.925 384.07 410.82 383.815 410.82 383.55C410.82 383.285 410.925 383.03 411.113 382.843C411.3 382.655 411.555 382.55 411.82 382.55H547.82C548.085 382.55 548.34 382.655 548.527 382.843C548.715 383.03 548.82 383.285 548.82 383.55C548.82 383.815 548.715 384.07 548.527 384.257C548.34 384.445 548.085 384.55 547.82 384.55Z" fill="#CBCBCB"/>
<path d="M238.95 169.6L194.95 187.48C191.397 189.046 187.563 189.873 183.68 189.91L136.77 190.45C134.654 190.449 132.56 190.031 130.606 189.22C128.652 188.409 126.877 187.221 125.381 185.724C123.886 184.228 122.701 182.451 121.893 180.496C121.084 178.541 120.669 176.446 120.67 174.33C120.67 174.13 120.67 173.93 120.67 173.74C120.918 169.544 122.763 165.602 125.825 162.723C128.888 159.845 132.937 158.248 137.14 158.26H181.37L217.75 142.16C219.75 141.26 230.32 140.16 231.22 142.16L241 164.23" fill="#CCCCCC"/>
<path d="M29.59 275.25C29.3785 275.25 29.1676 275.23 28.96 275.19L5.16996 271.13C4.69787 271.056 4.24517 270.889 3.83812 270.639C3.43107 270.388 3.07777 270.06 2.7987 269.672C2.51963 269.284 2.32036 268.844 2.21243 268.379C2.1045 267.913 2.09006 267.431 2.16996 266.96C2.16996 266.96 2.16996 266.9 2.16996 266.87L20.8 171.87C21.5015 167.767 23.8041 164.111 27.2013 161.706C30.5985 159.301 34.8121 158.344 38.915 159.045C43.0179 159.747 46.674 162.049 49.0792 165.446C51.4843 168.844 52.4415 173.057 51.74 177.16L33.13 272.32C32.972 273.144 32.5323 273.886 31.8864 274.421C31.2404 274.956 30.4285 275.249 29.59 275.25Z" fill="#CCCCCC"/>
<path d="M16.86 295.9C24.8626 295.9 31.35 289.413 31.35 281.41C31.35 273.407 24.8626 266.92 16.86 266.92C8.85739 266.92 2.37 273.407 2.37 281.41C2.37 289.413 8.85739 295.9 16.86 295.9Z" fill="#E6E6E6"/>
<path d="M87.14 157.22C116.919 157.22 141.06 133.079 141.06 103.3C141.06 73.5208 116.919 49.38 87.14 49.38C57.3608 49.38 33.22 73.5208 33.22 103.3C33.22 133.079 57.3608 157.22 87.14 157.22Z" fill="#E6E6E6"/>
<path d="M87.14 157.22C116.919 157.22 141.06 133.079 141.06 103.3C141.06 73.5208 116.919 49.38 87.14 49.38C57.3608 49.38 33.22 73.5208 33.22 103.3C33.22 133.079 57.3608 157.22 87.14 157.22Z" fill="#E6E6E6"/>
<path d="M87.14 144.34C109.806 144.34 128.18 125.966 128.18 103.3C128.18 80.6342 109.806 62.26 87.14 62.26C64.4742 62.26 46.1 80.6342 46.1 103.3C46.1 125.966 64.4742 144.34 87.14 144.34Z" fill="#6C63FF"/>
<path d="M91.93 120.53C89.27 120.46 85.93 120.37 83.41 118.53C82.6499 117.952 82.0253 117.215 81.5797 116.37C81.134 115.525 80.8782 114.594 80.83 113.64C80.7841 112.963 80.8957 112.285 81.156 111.659C81.4162 111.032 81.8181 110.475 82.33 110.03C83.0905 109.461 83.9817 109.093 84.9217 108.958C85.8617 108.824 86.8205 108.928 87.71 109.26L85.53 93.38L87.13 93.16L89.68 111.82L88.35 111.21C86.81 110.51 84.69 110.15 83.35 111.21C83.0257 111.5 82.773 111.862 82.6116 112.266C82.4503 112.67 82.3847 113.106 82.42 113.54C82.4634 114.248 82.6571 114.939 82.9881 115.567C83.3192 116.194 83.78 116.744 84.34 117.18C86.34 118.63 88.96 118.82 91.96 118.9L91.93 120.53Z" fill="#2F2E41"/>
<path d="M77.65 94.72H68.98V96.33H77.65V94.72Z" fill="#2F2E41"/>
<path d="M105.01 94.72H96.34V96.33H105.01V94.72Z" fill="#2F2E41"/>
<path opacity="0.2" d="M59.51 103.56C59.5126 93.7474 63.03 84.2603 69.4251 76.8177C75.8201 69.3752 84.6696 64.4697 94.37 62.99C88.5262 62.0227 82.5421 62.3331 76.8297 63.8999C71.1173 65.4667 65.8123 68.2527 61.2796 72.066C56.747 75.8794 53.0945 80.6296 50.5735 85.9897C48.0524 91.3498 46.7228 97.1925 46.676 103.116C46.6292 109.039 47.8664 114.902 50.3024 120.301C52.7384 125.7 56.3154 130.508 60.7872 134.392C65.259 138.277 70.5194 141.146 76.2063 142.803C81.8932 144.46 87.8716 144.865 93.73 143.99C84.1661 142.386 75.4801 137.445 69.215 130.043C62.9499 122.641 59.5113 113.257 59.51 103.56Z" fill="black"/>
<path d="M128.18 275.37H46.0901C42.5697 275.37 39.1934 273.972 36.7032 271.484C34.213 268.996 32.8127 265.62 32.8101 262.1V169.55C32.8153 166.03 34.2162 162.655 36.7055 160.165C39.1949 157.676 42.5696 156.275 46.0901 156.27H58.5701V159.91C58.5701 162.364 59.5443 164.718 61.2787 166.454C63.0131 168.191 65.3659 169.167 67.8201 169.17H106.45C108.904 169.167 111.257 168.191 112.991 166.454C114.726 164.718 115.7 162.364 115.7 159.91V156.29H128.18C131.7 156.293 135.076 157.693 137.564 160.183C140.052 162.673 141.45 166.05 141.45 169.57V262.12C141.445 265.636 140.044 269.006 137.556 271.49C135.068 273.975 131.696 275.37 128.18 275.37Z" fill="#E6E6E6"/>
<path d="M139.19 364.3H106.99V327.13L64.9399 262.66L91.9399 245.07L133.8 309.26C136.8 313.855 138.44 319.204 138.53 324.69L139.19 364.3Z" fill="#E6E6E6"/>
<path d="M82.4501 388.84H51.0601V294.69H82.4501V388.84Z" fill="#E6E6E6"/>
<path d="M121.74 303.54H52.5299C50.7159 303.54 48.9761 302.819 47.6933 301.537C46.4106 300.254 45.6899 298.514 45.6899 296.7V270.91C45.6899 269.096 46.4106 267.356 47.6933 266.073C48.9761 264.791 50.7159 264.07 52.5299 264.07H121.74C123.553 264.073 125.291 264.794 126.574 266.076C127.856 267.359 128.577 269.097 128.58 270.91V296.66C128.584 297.561 128.41 298.454 128.068 299.288C127.726 300.122 127.223 300.88 126.588 301.52C125.952 302.159 125.197 302.666 124.365 303.013C123.533 303.36 122.641 303.539 121.74 303.54Z" fill="#E6E6E6"/>
<path d="M144.81 379.19H107.37V354.24H144.79C146.458 354.193 148.118 354.48 149.673 355.086C151.228 355.692 152.646 356.603 153.842 357.766C155.039 358.929 155.99 360.321 156.639 361.858C157.289 363.395 157.623 365.046 157.623 366.715C157.623 368.384 157.289 370.035 156.639 371.572C155.99 373.109 155.039 374.501 153.842 375.664C152.646 376.827 151.228 377.738 149.673 378.344C148.118 378.949 146.458 379.237 144.79 379.19H144.81Z" fill="#CCCCCC"/>
<path d="M88.4801 388.84H51.0601V363.91H88.4801C90.1176 363.91 91.7392 364.233 93.2521 364.859C94.7651 365.486 96.1397 366.404 97.2977 367.562C98.4556 368.72 99.3742 370.095 100.001 371.608C100.628 373.121 100.95 374.742 100.95 376.38C100.95 378.018 100.628 379.639 100.001 381.152C99.3742 382.665 98.4556 384.04 97.2977 385.198C96.1397 386.356 94.7651 387.274 93.2521 387.901C91.7392 388.527 90.1176 388.85 88.4801 388.85V388.84Z" fill="#CCCCCC"/>
<path d="M126.31 197.31H96.53C96.1462 197.333 95.7618 197.277 95.4004 197.146C95.0389 197.015 94.7082 196.811 94.4283 196.548C94.1485 196.284 93.9255 195.966 93.7731 195.613C93.6207 195.26 93.5421 194.879 93.5421 194.495C93.5421 194.111 93.6207 193.73 93.7731 193.377C93.9255 193.024 94.1485 192.706 94.4283 192.442C94.7082 192.179 95.0389 191.975 95.4004 191.844C95.7618 191.713 96.1462 191.657 96.53 191.68H126.31C127.028 191.723 127.702 192.038 128.195 192.561C128.688 193.084 128.962 193.776 128.962 194.495C128.962 195.214 128.688 195.906 128.195 196.429C127.702 196.952 127.028 197.267 126.31 197.31Z" fill="white"/>
<path d="M126.31 207.37H96.53C96.1462 207.393 95.7618 207.337 95.4004 207.206C95.0389 207.075 94.7082 206.871 94.4283 206.608C94.1485 206.344 93.9255 206.026 93.7731 205.673C93.6207 205.32 93.5421 204.939 93.5421 204.555C93.5421 204.171 93.6207 203.79 93.7731 203.437C93.9255 203.084 94.1485 202.766 94.4283 202.502C94.7082 202.239 95.0389 202.035 95.4004 201.904C95.7618 201.773 96.1462 201.717 96.53 201.74H126.31C127.028 201.783 127.702 202.098 128.195 202.621C128.688 203.144 128.962 203.836 128.962 204.555C128.962 205.274 128.688 205.966 128.195 206.489C127.702 207.012 127.028 207.327 126.31 207.37Z" fill="white"/>
<path d="M243.11 163.52C235.11 163.52 220.46 159.04 220.46 151.04C220.46 143.04 235.11 134.54 243.11 134.54" fill="#E6E6E6"/>
<path d="M177.04 389.24H0.799999C0.587826 389.24 0.384343 389.156 0.234314 389.006C0.0842849 388.856 0 388.652 0 388.44C0 388.228 0.0842849 388.024 0.234314 387.874C0.384343 387.724 0.587826 387.64 0.799999 387.64H177.04C177.252 387.64 177.456 387.724 177.606 387.874C177.756 388.024 177.84 388.228 177.84 388.44C177.84 388.652 177.756 388.856 177.606 389.006C177.456 389.156 177.252 389.24 177.04 389.24Z" fill="#3F3D56"/>
</g>
<defs>
<clipPath id="clip0">
<rect width="671.63" height="389.24" fill="white"/>
</clipPath>
</defs>
</svg>
