<?xml version="1.0" encoding="utf-8"?>
<!-- Generator: Adobe Illustrator 25.0.1, SVG Export Plug-In . SVG Version: 6.00 Build 0)  -->
<svg version="1.1" id="Capa_1" xmlns="http://www.w3.org/2000/svg" xmlns:xlink="http://www.w3.org/1999/xlink" x="0px" y="0px"
	 viewBox="0 0 512 512" style="enable-background:new 0 0 512 512;" xml:space="preserve">
<style type="text/css">
	.st0{fill:#CECECE;}
	.st1{fill:#FF8500;}
</style>
<path class="st0" d="M384,128H254.7c-26.6-19.8-59.1-32-94.7-32C71.8,96,0,167.8,0,256s71.8,160,160,160c35.6,0,68.1-12.2,94.7-32
	H384c70.6,0,128-57.4,128-128S454.6,128,384,128L384,128z M32,256c0-70.6,57.4-128,128-128s128,57.4,128,128s-57.4,128-128,128
	S32,326.6,32,256L32,256z M384,352h-96.8c20.3-26.8,32.8-59.8,32.8-96s-12.5-69.2-32.8-96H384c52.9,0,96,43.1,96,96
	S436.9,352,384,352z"/>
<g>
	<g>
		<path class="st1" d="M159,199.6c-31.3,0-56.8,25.5-56.8,56.8s25.5,56.8,56.8,56.8s56.8-25.5,56.8-56.8S190.3,199.6,159,199.6z"/>
		<g>
			<g>
				<path class="st1" d="M159,182.9c-6.1,0-11.1-5-11.1-11.1v-17.7c0-6.1,5-11.1,11.1-11.1s11.1,5,11.1,11.1v17.7
					C170.1,177.9,165.1,182.9,159,182.9z"/>
			</g>
			<g>
				<path class="st1" d="M159,329.9c-6.1,0-11.1,5-11.1,11.1v17.7c0,6.1,5,11.1,11.1,11.1s11.1-5,11.1-11.1V341
					C170.1,334.8,165.1,329.9,159,329.9z"/>
			</g>
			<g>
				<path class="st1" d="M211,204.4c-4.3-4.3-4.3-11.3,0-15.7l12.5-12.5c4.3-4.3,11.3-4.3,15.7,0c4.3,4.3,4.3,11.3,0,15.7
					l-12.5,12.5C222.3,208.7,215.3,208.7,211,204.4z"/>
			</g>
			<g>
				<path class="st1" d="M107,308.4c-4.3-4.3-11.3-4.3-15.7,0l-12.5,12.5c-4.3,4.3-4.3,11.3,0,15.7c4.3,4.3,11.3,4.3,15.7,0L107,324
					C111.4,319.7,111.4,312.7,107,308.4z"/>
			</g>
			<g>
				<path class="st1" d="M232.5,256.4c0-6.1,5-11.1,11.1-11.1h17.7c6.1,0,11.1,5,11.1,11.1s-5,11.1-11.1,11.1h-17.7
					C237.5,267.5,232.5,262.5,232.5,256.4z"/>
			</g>
			<g>
				<path class="st1" d="M85.5,256.4c0-6.1-5-11.1-11.1-11.1H56.7c-6.1,0-11.1,5-11.1,11.1s5,11.1,11.1,11.1h17.7
					C80.5,267.5,85.5,262.5,85.5,256.4z"/>
			</g>
			<g>
				<path class="st1" d="M211,308.4c4.3-4.3,11.3-4.3,15.7,0l12.5,12.5c4.3,4.3,4.3,11.3,0,15.7c-4.3,4.3-11.3,4.3-15.7,0L211,324
					C206.6,319.7,206.6,312.7,211,308.4z"/>
			</g>
			<g>
				<path class="st1" d="M107,204.4c4.3-4.3,4.3-11.3,0-15.7l-12.5-12.5c-4.3-4.3-11.3-4.3-15.7,0c-4.3,4.3-4.3,11.3,0,15.7
					l12.5,12.5C95.7,208.7,102.7,208.7,107,204.4z"/>
			</g>
		</g>
	</g>
</g>
</svg>
